<svg width="890" height="888" viewBox="0 0 890 888" fill="none" xmlns="http://www.w3.org/2000/svg">
<g opacity="0.35" filter="url(#filter0_f_1_1829)">
<circle cx="489" cy="399" r="239" fill="url(#paint0_radial_1_1829)"/>
</g>
<circle cx="683" cy="278" r="100" fill="#362BA9"/>
<path d="M415.232 533.592C415.232 538.968 413.936 544.008 411.344 548.712C408.848 553.416 404.864 557.208 399.392 560.088C394.016 562.968 387.2 564.408 378.944 564.408H362.096V603H341.936V502.488H378.944C386.72 502.488 393.344 503.832 398.816 506.52C404.288 509.208 408.368 512.904 411.056 517.608C413.84 522.312 415.232 527.64 415.232 533.592ZM378.08 548.136C383.648 548.136 387.776 546.888 390.464 544.392C393.152 541.8 394.496 538.2 394.496 533.592C394.496 523.8 389.024 518.904 378.08 518.904H362.096V548.136H378.08ZM464.249 604.008C457.241 604.008 450.905 602.808 445.241 600.408C439.673 598.008 435.257 594.552 431.993 590.04C428.729 585.528 427.049 580.2 426.953 574.056H448.553C448.841 578.184 450.281 581.448 452.873 583.848C455.561 586.248 459.209 587.448 463.817 587.448C468.521 587.448 472.217 586.344 474.905 584.136C477.594 581.832 478.938 578.856 478.938 575.208C478.938 572.232 478.026 569.784 476.201 567.864C474.377 565.944 472.073 564.456 469.29 563.4C466.601 562.248 462.857 561 458.057 559.656C451.529 557.736 446.201 555.864 442.073 554.04C438.041 552.12 434.537 549.288 431.561 545.544C428.681 541.704 427.241 536.616 427.241 530.28C427.241 524.328 428.729 519.144 431.705 514.728C434.681 510.312 438.857 506.952 444.233 504.648C449.609 502.248 455.753 501.048 462.666 501.048C473.033 501.048 481.433 503.592 487.866 508.68C494.394 513.672 497.994 520.68 498.666 529.704H476.489C476.297 526.248 474.809 523.416 472.026 521.208C469.338 518.904 465.737 517.752 461.225 517.752C457.289 517.752 454.121 518.76 451.721 520.776C449.417 522.792 448.265 525.72 448.265 529.56C448.265 532.248 449.129 534.504 450.857 536.328C452.681 538.056 454.889 539.496 457.481 540.648C460.169 541.704 463.913 542.952 468.714 544.392C475.241 546.312 480.569 548.232 484.698 550.152C488.826 552.072 492.378 554.952 495.354 558.792C498.33 562.632 499.818 567.672 499.818 573.912C499.818 579.288 498.426 584.28 495.641 588.888C492.857 593.496 488.777 597.192 483.401 599.976C478.026 602.664 471.641 604.008 464.249 604.008ZM514.127 582.552V566.712L561.215 499.32H584.687V564.984H597.359V582.552H584.687V603H564.527V582.552H514.127ZM565.823 520.92L536.303 564.984H565.823V520.92Z" fill="#362BA9"/>
<defs>
<filter id="filter0_f_1_1829" x="0.00012207" y="-90" width="978" height="978" filterUnits="userSpaceOnUse" color-interpolation-filters="sRGB">
<feFlood flood-opacity="0" result="BackgroundImageFix"/>
<feBlend mode="normal" in="SourceGraphic" in2="BackgroundImageFix" result="shape"/>
<feGaussianBlur stdDeviation="125" result="effect1_foregroundBlur_1_1829"/>
</filter>
<radialGradient id="paint0_radial_1_1829" cx="0" cy="0" r="1" gradientUnits="userSpaceOnUse" gradientTransform="translate(618.086 304.422) rotate(136.101) scale(357.584)">
<stop stop-color="#D1CFE6"/>
<stop offset="1" stop-color="#9E9ACA"/>
</radialGradient>
</defs>
</svg>
